<svg width="12.13mm" height="12.02mm" version="1.1" viewBox="0 0 519.12 518.79" xmlns="http://www.w3.org/2000/svg" xmlns:xlink="http://www.w3.org/1999/xlink"><defs><linearGradient id="IDb" x1="56.683" x2="56.683" y1="218.66" y2="672.04" gradientTransform="matrix(1.0004 0 0 .99964 -56.703 -218.58)" gradientUnits="userSpaceOnUse"><stop stop-color="#fd0a02" offset="0"/><stop stop-color="#fd3703" offset=".27"/><stop stop-color="#fffb17" offset="1"/></linearGradient><radialGradient id="IDa" cx="226.87" cy="227.78" r="226.77" gradientTransform="matrix(1 0 0 .99928 4.5 .16398)" gradientUnits="userSpaceOnUse" spreadMethod="reflect"><stop stop-color="#fffb17" offset="-99"/><stop stop-color="#fd3703" style="stop-color:#d6d6d6;stop-opacity:.80992" offset="-25.96"/><stop stop-color="#fd0a02" style="stop-color:#640401" offset="1"/></radialGradient><filter id="IDc" x="-.073393" y="-.073446" width="1.1468" height="1.1469" style="color-interpolation-filters:sRGB"><feGaussianBlur stdDeviation="13.661255"/></filter></defs><g transform="translate(28.187 31.614)"><path d="m144.36 418.24c-31.519-36.408-42.174-117.36-35.104-140.33 9.9544-32.345 21.049-46.054 52.91-61.14 12.171-5.7629 30.369-9.7087 40.618-16.999 9.6275-6.8485 11.103-20.882 0.3031-30.555-11.374-10.186-25.905-6.8539-44.714-1.9463-0.8293 0.2163-2.2371 1.2415-2.4517 2.0893-0.5764 2.2763 0.3517 4.8404 1.55 7.9654-13.009-4.9358-26.833-14.752-28.839-21.314-6.3773-20.865 17.573-38.445 48.266-37.644-3.4102-17.273-3.4635-26.602 18.537-25.134 32.366 2.1593 53.818 13.086 85.84 21.325 2.5911 0.6668 15.302 4.2674 17.351 2.4455 1.3911-1.2363 2.2548-6.8008 4.1746-11.352 1.7884 5.7771 3.6412 13.171 1.3306 18.928-3.601 8.9701-42.338 0.4436-49.836-0.4936-1.4719 2.0873-0.7547 6.4248 1.0548 6.9152 21.778 5.9031 40.947 25.511 46.258 34.455 8.8055 14.832 10.521 29.513 7.7741 42.707-2.5105 12.06-21.178 36.296-31.757 50.233-13.891 18.301-22.03 28.984-9.0675 43.421 6.6796 7.4391 40.824 10.557 75.278-3.6384 30.204-12.444 75.735-59.108 75.527-110.4-0.4087-100.65-83.111-169.04-176.17-181.35-4.1817-0.6355-4.2058-5.2511-0.0238-5.2514 85.729-8e-3 214.98 78.833 214.98 226.49 2e-4 127-105.71 226.72-223.18 226.72-46.871 0-69.584-11.872-90.603-36.151zm-139.76-190.62c0-147.17 129.41-226.45 214.98-226.45 4.2192 0 4.2282 4.6119 9e-3 5.2304-94.354 10.94-163.61 72.376-180.2 163.11-13.135 71.848 14.501 141.16 66.086 182.98 6.8172 36.501 27.251 73.534 52.047 89.504-97.014-32.749-152.92-124.89-152.92-214.38zm189.2-109.32c-1.0982-0.0895-5.4887-5.9834-1.2128-6.6405 10.982-1.6874 21.989 2.9859 27.148 6.8763 0.9582 0.7226 0.4686 3.0838-0.2361 2.9402-5.5378-1.1299-24.15-3.05-25.699-3.176z" style="fill-rule:evenodd;fill:url(#IDa);filter:url(#IDc);mix-blend-mode:normal;opacity:.61733;stroke-width:.99975;stroke:#000000"/><path d="m139.76 417.07c-31.519-36.408-42.174-117.36-35.104-140.33 9.9544-32.345 21.049-46.054 52.91-61.14 12.171-5.7629 30.369-9.7087 40.618-16.999 9.6275-6.8485 11.103-20.882 0.3031-30.555-11.374-10.186-25.905-6.8539-44.714-1.9463-0.8293 0.2163-2.2371 1.2415-2.4517 2.0893-0.5764 2.2763 0.3517 4.8404 1.55 7.9654-13.009-4.9358-26.833-14.752-28.839-21.314-6.3773-20.865 17.573-38.445 48.266-37.644-3.4102-17.273-3.4635-26.602 18.537-25.134 32.366 2.1593 53.818 13.086 85.84 21.325 2.5911 0.6668 15.302 4.2674 17.351 2.4455 1.3911-1.2363 2.2548-6.8008 4.1746-11.352 1.7884 5.7771 3.6412 13.171 1.3306 18.928-3.601 8.9701-42.338 0.4436-49.836-0.4936-1.4719 2.0873-0.7547 6.4248 1.0548 6.9152 21.778 5.9031 40.947 25.511 46.258 34.455 8.8055 14.832 10.521 29.513 7.7741 42.707-2.5105 12.06-21.178 36.296-31.757 50.233-13.891 18.301-22.03 28.984-9.0675 43.421 6.6796 7.4391 40.824 10.557 75.278-3.6384 30.204-12.444 75.735-59.108 75.527-110.4-0.4087-100.65-83.111-169.04-176.17-181.35-4.1817-0.6355-4.2058-5.2511-0.0238-5.2514 85.729-8e-3 214.98 78.833 214.98 226.49 2e-4 127-105.71 226.72-223.18 226.72-46.871 0-69.584-11.872-90.603-36.151zm-139.76-190.62c0-147.17 129.41-226.45 214.98-226.45 4.2192 0 4.2282 4.6119 9e-3 5.2304-94.354 10.94-163.61 72.376-180.2 163.11-13.135 71.848 14.501 141.16 66.086 182.98 6.8172 36.501 27.251 73.534 52.047 89.504-97.014-32.749-152.92-124.89-152.92-214.38zm189.2-109.32c-1.0982-0.0895-5.4887-5.9834-1.2128-6.6405 10.982-1.6874 21.989 2.9859 27.148 6.8763 0.9582 0.7226 0.4686 3.0838-0.2361 2.9402-5.5378-1.1299-24.15-3.05-25.699-3.176z" style="fill-rule:evenodd;fill:url(#IDb);stroke-width:.32475;stroke:#909090"/></g></svg>
