<?xml version="1.0" encoding="UTF-8" standalone="no"?>
<!-- Created with Inkscape (http://www.inkscape.org/) -->

<svg
   width="70"
   height="70"
   viewBox="0 0 18.520833 18.520833"
   version="1.1"
   id="svg1660"
   inkscape:version="1.2.1 (9c6d41e410, 2022-07-14)"
   sodipodi:docname="ToNatura-70x70.svg"
   xmlns:inkscape="http://www.inkscape.org/namespaces/inkscape"
   xmlns:sodipodi="http://sodipodi.sourceforge.net/DTD/sodipodi-0.dtd"
   xmlns:xlink="http://www.w3.org/1999/xlink"
   xmlns="http://www.w3.org/2000/svg"
   xmlns:svg="http://www.w3.org/2000/svg">
  <sodipodi:namedview
     id="namedview1662"
     pagecolor="#ffffff"
     bordercolor="#000000"
     borderopacity="0.25"
     inkscape:showpageshadow="2"
     inkscape:pageopacity="0.0"
     inkscape:pagecheckerboard="0"
     inkscape:deskcolor="#d1d1d1"
     inkscape:document-units="mm"
     showgrid="false"
     inkscape:zoom="2.3786088"
     inkscape:cx="155.1327"
     inkscape:cy="105.10345"
     inkscape:window-width="1920"
     inkscape:window-height="1147"
     inkscape:window-x="1672"
     inkscape:window-y="1072"
     inkscape:window-maximized="1"
     inkscape:current-layer="layer1" />
  <defs
     id="defs1657">
    <linearGradient
       id="a"
       x1="2.2057e-05"
       x2="7.7364998"
       y1="7.9397003e-05"
       y2="7.9397003e-05"
       gradientTransform="scale(0.91809,1.0892)"
       gradientUnits="userSpaceOnUse"
       xlink:href="#b"
       b-tht2y0jfeg="" />
    <linearGradient
       id="b"
       b-tht2y0jfeg="">
      <stop
         stop-color="#8f5e25"
         offset="0"
         b-tht2y0jfeg=""
         id="stop2" />
      <stop
         stop-color="#fbf4a1"
         offset=".5"
         b-tht2y0jfeg=""
         id="stop4" />
      <stop
         stop-color="#8f5e25"
         offset="1"
         b-tht2y0jfeg=""
         id="stop6" />
    </linearGradient>
    <linearGradient
       inkscape:collect="always"
       xlink:href="#b"
       id="linearGradient3288"
       gradientUnits="userSpaceOnUse"
       gradientTransform="scale(0.91809,1.0892)"
       x1="2.2057e-05"
       y1="7.9397003e-05"
       x2="7.7364998"
       y2="7.9397003e-05" />
    <linearGradient
       inkscape:collect="always"
       xlink:href="#b"
       id="linearGradient3290"
       gradientUnits="userSpaceOnUse"
       gradientTransform="scale(0.91809,1.0892)"
       x1="2.2057e-05"
       y1="7.9397003e-05"
       x2="7.7364998"
       y2="7.9397003e-05" />
  </defs>
  <g
     inkscape:label="Calque 1"
     inkscape:groupmode="layer"
     id="layer1">
    <g
       transform="matrix(2.5702192,0,0,2.1239064,0.10456056,0.33912007)"
       fill="url(#a)"
       featurekey="S6ay6y-0"
       b-tht2y0jfeg=""
       id="g17"
       style="fill:url(#a)">
      <g
         fill="url(#a)"
         b-tht2y0jfeg=""
         id="g15"
         style="fill:url(#linearGradient3290)">
        <path
           class="fil0"
           d="M 4.8639,2.0138 C 3.0535,1.5364 4.0654,0.8689 3.5889,0.1476 c 0,0 1.3464,0.3808 1.3692,1.6525 0,0 -0.4513,-0.7012 -0.3839,-0.5426 0.0674,0.1587 0.2897,0.7563 0.2897,0.7563 z M 3.2716,0.5762 C 2.1723,4.2213 7.6367,5.86 3.3049,8.4268 8.7725,6.7835 2.6519,3.7483 3.2716,0.5762 Z M 2.5335,1e-4 C 1.9252,0.6725 1.8888,0.773 1.5098,1.6417 1.3846,1.5204 1.2591,1.3571 1.1577,1.1386 c 0,0 0.0624,0.3488 0.3103,0.5962 C 0.8018,3.1522 -0.2318,2.2347 0.5816,3.1941 0.4967,3.6615 0.0557,3.7269 0.4848,3.9201 -0.1392,4.1403 0.3834,4.3007 0.3558,4.4524 0.3235,4.6298 0.0431,4.7049 9e-4,5.0977 -0.0413,5.4905 1.4465,5.6728 1.9206,5.9204 2.8237,6.3922 3.0438,7.3988 2.6788,8.3402 2.5003,8.8005 5.4883,7.3077 2.7917,3.5813 1.7391,2.1908 2.5447,-0.0062 2.5335,1e-4 Z m 2.6514,2.1472 c 1.3909,1.2532 0.1858,1.3834 0.2792,2.2428 0,0 -1.0228,-0.9549 -0.4608,-2.096 0,0 0.0802,0.83 0.0929,0.6581 C 5.1089,2.7803 5.1849,2.1473 5.1849,2.1473 Z m 0.3407,0.0426 c 1.1642,-0.6514 0.976,0.1916 1.5772,0.3254 0,0 -0.8786,0.4714 -1.5198,-0.1692 0,0 0.5785,0.136 0.4654,0.0881 C 5.9353,2.3862 5.5256,2.1899 5.5256,2.1899 Z M 5.1801,1.99 c 1.8506,-0.2833 0.915,-1.054 1.465,-1.7209 0,0 -1.3791,0.2363 -1.5362,1.4985 0,0 0.523,-0.6496 0.4391,-0.499 C 5.4642,1.4192 5.1801,1.99 5.1801,1.99 Z M 5.0464,1.2594 C 4.4686,0.636 5.0188,0.6263 5.0116,0.2339 c 0,0 0.4236,0.4735 0.1229,0.9665 0,0 -0.0024,-0.3786 -0.0152,-0.3013 C 5.1066,0.9762 5.0464,1.2594 5.0464,1.2594 Z"
           fill="url(#a)"
           b-tht2y0jfeg=""
           id="path13"
           style="fill:url(#linearGradient3288)" />
      </g>
    </g>
  </g>
</svg>
